<?xml version="1.0" encoding="UTF-8"?>
<svg width="32px" height="32px" viewBox="0 0 32 32" version="1.1" xmlns="http://www.w3.org/2000/svg">
  <g stroke="none" stroke-width="1" fill="none" fill-rule="evenodd">
    <circle fill="#19A974" cx="16" cy="16" r="16"></circle>
    <path d="M16,6 C17.1045695,6 18,6.8954305 18,8 L18,11 L21,11 C22.1045695,11 23,11.8954305 23,13 C23,14.1045695 22.1045695,15 21,15 L18,15 L18,18 L21,18 C22.1045695,18 23,18.8954305 23,20 C23,21.1045695 22.1045695,22 21,22 L16,22 C14.8954305,22 14,21.1045695 14,20 L14,8 C14,6.8954305 14.8954305,6 16,6 Z" fill="#FFFFFF" fill-rule="nonzero"></path>
    <path d="M9,11 C10.1045695,11 11,11.8954305 11,13 C11,14.1045695 10.1045695,15 9,15 L8,15 C7.44771525,15 7,15.4477153 7,16 C7,16.5522847 7.44771525,17 8,17 L9,17 C10.1045695,17 11,17.8954305 11,19 C11,20.1045695 10.1045695,21 9,21 L8,21 C5.790861,21 4,19.209139 4,17 L4,15 C4,12.790861 5.790861,11 8,11 L9,11 Z" fill="#FFFFFF" fill-rule="nonzero" transform="translate(7.500000, 16.000000) scale(-1, 1) translate(-7.500000, -16.000000)"></path>
    <circle fill="#FFC30F" cx="24" cy="8" r="2"></circle>
  </g>
</svg>